<svg xmlns:xlink="http://www.w3.org/1999/xlink" xmlns="http://www.w3.org/2000/svg" viewBox="0 0 370.15034168564927 44.729110334581854" preserveAspectRatio="xMidYMid meet" class="css-1pqak89" id="bghgbbge" width="370.15034168564927"  height="44.729110334581854" ><defs id="SvgjsDefs1001"></defs><g id="SvgjsG1007" featurekey="symbolFeature-0" transform="matrix(0.5917429938178888,0,0,0.5917429938178888,0.012785462634981239,-0.01032949806103004)" fill="#111111"><title xmlns="http://www.w3.org/2000/svg" fill="#111111">Shape</title><desc xmlns="http://www.w3.org/2000/svg" fill="#111111">Created with Sketch.</desc><g xmlns="http://www.w3.org/2000/svg" stroke-width="1" fill-rule="evenodd" fill="#111111"><g transform="translate(-1244.000000, -1876.000000)" fill="#111111"><path d="M1274,1937.8 L1275.34,1930.8 L1267.72,1934.61 C1267.04416,1935.02971 1266.26554,1935.25464 1265.47,1935.26 C1264.68,1935.19 1263.9,1934.49 1264.04,1933.71 C1264.60196,1930.6169 1264.76329,1927.46431 1264.52,1924.33 C1264.46,1923.55 1264.29,1922.64 1263.59,1922.33 C1263.13575,1922.15985 1262.64048,1922.13195 1262.17,1922.25 L1252.6,1923.65 C1251.53,1923.8 1251,1922.28 1251.37,1921.29 C1251.74,1920.3 1252.71,1919.61 1253.24,1918.67 C1253.77,1917.73 1253.61,1916.2 1252.55,1916 L1246,1914.67 C1245.18,1914.5 1244.18,1914.18 1244,1913.35 C1243.82,1912.52 1244.8,1911.83 1245.6,1911.44 L1287.76,1890.72 C1288.54997,1890.38434 1289.27963,1889.92154 1289.92,1889.35 C1290.49545,1888.69924 1290.96761,1887.96401 1291.32,1887.17 C1293.8,1882.39 1297.43,1877.68 1302.64,1876.35 C1306.97565,1875.30802 1311.53154,1876.75605 1314.47,1880.11 C1317.30172,1883.5573 1317.98731,1888.29095 1316.25,1892.4 C1315.25,1894.67 1313.55,1896.58 1312.64,1898.89 C1311.3,1902.3 1311.83,1906.12 1312.38,1909.74 L1317.93,1946 C1318.14,1947.36 1318.28,1949 1317.29,1949.92 C1316.37509,1950.67502 1315.10121,1950.82005 1314.04,1950.29 C1313.00946,1949.75476 1312.09518,1949.02062 1311.35,1948.13 L1305.06,1941.54 C1304.15,1940.54 1302.74,1939.54 1301.65,1940.31 C1298.87739,1942.22721 1295.98851,1943.97056 1293,1945.53 C1292.36,1945.87 1291.46,1946.15 1291,1945.59 C1290.80718,1945.29368 1290.71593,1944.94271 1290.74,1944.59 L1290.27,1937 C1290.19,1935.73 1288.34,1935.63 1287.11,1936 C1283.08753,1937.1177 1279.17217,1938.59014 1275.41,1940.4 C1275.11428,1940.49419 1274.79326,1940.46704 1274.51757,1940.3245 C1274.24188,1940.18197 1274.03412,1939.93574 1273.94,1939.64 C1273.77088,1939.03832 1273.77088,1938.40168 1273.94,1937.8 L1274,1937.8 Z M1306.1,1936.1 C1306.68608,1936.38345 1307.19411,1936.80567 1307.58,1937.33 L1313.07,1943.67 L1308.26,1910.86 C1308.32524,1917.36751 1307.95441,1923.87207 1307.15,1930.33 C1307.15016,1931.09715 1306.84842,1931.83354 1306.31,1932.38 C1305.71,1932.84 1304.55,1932.48 1304.65,1931.72 C1306.02419,1920.63541 1306.22531,1909.43678 1305.25,1898.31 C1301.17667,1908.63667 1297.58667,1919.13667 1294.48,1929.81 C1294.28,1930.51 1293.12,1930.39 1292.77,1929.75 C1292.4932,1929.07044 1292.4932,1928.30956 1292.77,1927.63 C1295.74333,1917.46333 1299.03,1907.39667 1302.63,1897.43 C1302.28107,1896.95604 1301.74607,1896.65397 1301.16,1896.6 C1293.5,1905.59333 1286.11333,1914.82333 1279,1924.29 C1278.55,1924.89 1277.49,1924.29 1277.4,1923.6 C1277.41288,1922.84626 1277.72179,1922.12785 1278.26,1921.6 L1294.45,1901.17 C1295.99,1899.17 1297.61,1897.08 1297.68,1894.59 C1287.37333,1901.60333 1277.37333,1909.05667 1267.68,1916.95 C1267.25779,1917.37507 1266.71157,1917.65519 1266.12,1917.75 C1265.53,1917.75 1264.88,1917.23 1265.06,1916.66 C1265.17486,1916.39887 1265.36676,1916.17906 1265.61,1916.03 L1295.71,1893.16 C1294.05,1892.52 1292.23,1893.4 1290.71,1894.26 L1263.06,1909.46 C1262.58433,1909.80622 1261.9924,1909.95331 1261.41,1909.87 C1260.85,1909.71 1260.56,1908.82 1261.07,1908.54 L1289.71,1893.18 C1290.71,1892.67 1291.71,1891.98 1291.83,1890.9 C1277.85667,1897.63333 1264.00333,1904.60667 1250.27,1911.82 L1256.13,1913 C1257.13,1913.21 1258.33,1913.52 1258.77,1914.48 C1259.62,1916.33 1256.89,1918.02 1256.89,1920.06 C1259.41078,1919.98102 1261.917,1919.64596 1264.37,1919.06 C1265.79,1918.72 1267.68,1918.48 1268.37,1919.78 C1268.55272,1920.20932 1268.63809,1920.67377 1268.62,1921.14 L1268.94,1930.75 L1277.27,1926.7 C1277.94,1926.37 1278.8,1926.06 1279.38,1926.54 C1279.80526,1927.03957 1279.95847,1927.71594 1279.79,1928.35 L1279,1936 C1283.08253,1934.10611 1287.40651,1932.78368 1291.85,1932.07 C1292.28589,1931.95515 1292.74411,1931.95515 1293.18,1932.07 C1294.1,1932.42 1294.33,1933.59 1294.43,1934.57 L1295,1941.07 C1297.59397,1939.37802 1300.30783,1937.87738 1303.12,1936.58 C1303.99658,1936.04337 1305.04956,1935.87446 1306.05,1936.11 L1306.1,1936.1 Z M1310.31,1895.24 C1310.58436,1895.12531 1310.82519,1894.94297 1311.01,1894.71 C1312.84746,1892.71267 1313.72864,1890.01676 1313.42557,1887.31977 C1313.12249,1884.62279 1311.66493,1882.1897 1309.43,1880.65 C1307.08792,1879.01151 1304.07223,1878.67979 1301.43,1879.77 C1298.81,1880.95 1297.14,1883.52 1295.78,1886.06 C1295.5787,1886.35223 1295.4899,1886.70742 1295.53,1887.06 C1295.65706,1887.37035 1295.88641,1887.62793 1296.18,1887.79 C1300.1922,1890.63068 1304.48858,1893.04697 1309,1895 C1309.40953,1895.24157 1309.89381,1895.32347 1310.36,1895.23 L1310.31,1895.24 Z" stroke="none" fill="#111111"></path></g></g></g><g id="SvgjsG1008" featurekey="nameFeature-0" transform="matrix(1.121923081376006,0,0,1.121923081376006,61.756153837247986,-6.565539367370649)" fill="#111111"><path d="M8 30 c0 2.96 1.48 4.64 4.48 4.64 c0.84 0 1.6 -0.12 2.2 -0.4 c1.12 -0.44 1.88 -1.28 2.28 -2.44 c0.16 -0.56 0.24 -1.16 0.24 -1.8 s-0.08 -1.24 -0.24 -1.8 c-0.44 -1.24 -1.12 -1.92 -2.28 -2.48 c-0.6 -0.24 -1.36 -0.36 -2.2 -0.36 c-3 0 -4.48 1.68 -4.48 4.64 z M2 12 l6 0 l0 10 c1.36 -1.56 3.2 -2.2 5.24 -2.2 c5.84 0 9.96 4.68 9.96 10.28 c0 6.32 -4.68 10.12 -10.64 10.12 c-6.2 0 -10.56 -4.08 -10.56 -10.2 l0 -18 z M40.04 30 c-0.16 -2.92 -1.48 -4.64 -4.52 -4.64 c-0.84 0 -1.56 0.12 -2.16 0.36 c-1.84 0.84 -2.52 2.4 -2.52 4.32 c0 0.64 0.08 1.24 0.28 1.76 c0.6 2.08 2.4 2.84 4.4 2.84 c3.04 0 4.52 -1.64 4.52 -4.64 z M47.64 40 l-6 0 c-0.4 -1 -0.76 -2 -1 -3.04 c-1.36 2.24 -3.44 3.24 -6 3.24 c-5.72 0 -9.8 -4.8 -9.8 -10.28 c0 -6.32 4.72 -10.12 10.68 -10.12 c6.36 0 10.36 4.08 10.52 10.2 c0.04 0.52 0.04 1.12 0.04 1.84 c0 2.8 0.44 5.6 1.56 8.16 z M64.08 30 c0 -3 -1.48 -4.64 -4.52 -4.64 c-0.84 0 -1.56 0.12 -2.16 0.36 c-1.12 0.52 -1.88 1.28 -2.24 2.48 c-0.2 0.56 -0.28 1.16 -0.28 1.8 s0.08 1.24 0.28 1.8 c0.32 1.16 1.16 2 2.24 2.44 c0.6 0.28 1.32 0.4 2.16 0.4 c3.04 0 4.52 -1.64 4.52 -4.64 z M64.08 22 l0 -10 l6 0 l0 18 c0 6.36 -4.52 10.2 -10.56 10.2 c-6.16 0 -10.64 -4 -10.64 -10.12 c0 -5.64 4.16 -10.28 9.84 -10.28 c2.12 0 3.96 0.6 5.36 2.2 z M106.08 29.2 l0 10.8 l-6 0 l0 -10.8 c0 -2.28 -1.08 -3.84 -3.48 -3.84 c-2.36 0 -3.52 1.6 -3.52 3.84 l0 10.8 l-6 0 l0 -10.8 c0 -2.28 -1.16 -3.84 -3.56 -3.84 c-2.36 0 -3.44 1.6 -3.44 3.84 l0 10.8 l-6 0 l0 -10.8 c0 -5.8 3.96 -9.4 9.52 -9.4 c2.84 0 5.04 1.32 6.48 3.76 c1.44 -2.44 3.64 -3.76 6.48 -3.76 c5.76 0 9.52 3.8 9.52 9.4 z M109.56 20 l6 0 l0 20 l-6 0 l0 -20 z M112.56 18.12 c-2.04 0 -3.48 -1.44 -3.48 -3.48 c0 -2.08 1.44 -3.44 3.48 -3.44 c2.08 0 3.44 1.36 3.44 3.44 c0 2.12 -1.32 3.48 -3.44 3.48 z M140.16 30 l0 10 l-6 0 l0 -10 c0 -2.76 -1.28 -4.64 -4.2 -4.64 c-2.88 0 -4.2 1.92 -4.2 4.64 l0 10 l-6 0 l0 -10 c0 -6.16 4.24 -10.2 10.2 -10.2 c6.2 0 10.2 4.24 10.2 10.2 z M155.12 20.68 l0 5.56 l-5.6 0 l0 3.76 c0 3.08 2.04 4.64 5 4.64 c0.36 0 0.68 -0.04 0.96 -0.08 s0.52 -0.08 0.8 -0.12 l0 5.56 c-0.36 0.04 -0.64 0.12 -0.84 0.16 c-0.24 0.04 -0.64 0.04 -1.16 0.04 c-6.04 0 -10.76 -4.12 -10.76 -10.2 l0 -14.8 l6 0 l0 5.48 l5.6 0 z M168 34.64 c2.92 0 4.6 -1.72 4.6 -4.64 s-1.68 -4.64 -4.6 -4.64 s-4.6 1.72 -4.6 4.64 s1.68 4.64 4.6 4.64 z M168 40.2 c-6.16 0 -10.6 -4.08 -10.6 -10.2 c0 -6.32 4.6 -10.2 10.6 -10.2 c6.2 0 10.6 4.08 10.6 10.2 c0 6.28 -4.64 10.2 -10.6 10.2 z M201.84 30 l0 10 l-6 0 l0 -10 c0 -2.76 -1.28 -4.64 -4.2 -4.64 c-2.88 0 -4.2 1.92 -4.2 4.64 l0 10 l-6 0 l0 -10 c0 -6.16 4.24 -10.2 10.2 -10.2 c6.2 0 10.2 4.24 10.2 10.2 z M211.52 30 l0 10 l-6 0 l0 -28 l6 0 l0 9.84 c1.4 -1.48 3.16 -2.04 5.16 -2.04 c5.68 0 9.24 4.88 9.24 10.2 l0 10 l-6 0 l0 -10 c0 -2.72 -1.08 -4.64 -4 -4.64 c-2.88 0 -4.4 1.84 -4.4 4.64 z M243.68 20 l6 0 l0 10 c0 6.12 -4.24 10.2 -10.2 10.2 c-6.12 0 -10.2 -4.28 -10.2 -10.2 l0 -10 l6 0 l0 10 c0 2.68 1.36 4.64 4.2 4.64 c2.92 0 4.2 -1.92 4.2 -4.64 l0 -10 z M259.68 30 c0 2.96 1.48 4.64 4.48 4.64 c0.84 0 1.6 -0.12 2.2 -0.4 c1.12 -0.44 1.88 -1.28 2.28 -2.44 c0.16 -0.56 0.24 -1.16 0.24 -1.8 s-0.08 -1.24 -0.24 -1.8 c-0.44 -1.24 -1.12 -1.92 -2.28 -2.48 c-0.6 -0.24 -1.36 -0.36 -2.2 -0.36 c-3 0 -4.48 1.68 -4.48 4.64 z M253.68 12 l6 0 l0 10 c1.36 -1.56 3.2 -2.2 5.24 -2.2 c5.84 0 9.96 4.68 9.96 10.28 c0 6.32 -4.68 10.12 -10.64 10.12 c-6.2 0 -10.56 -4.08 -10.56 -10.2 l0 -18 z" fill="#111111"></path></g></svg>