<svg viewBox="0 0 350 39.81470182304673" xmlns:xlink="http://www.w3.org/1999/xlink" xmlns="http://www.w3.org/2000/svg" height="39.81470182304673" width="350" style="width: 350px; height: 39.8147px; position: absolute; top: 50%; left: 50%; transform: translate(-50%, -50%) scale(1); z-index: 0; cursor: pointer; overflow: visible;"><defs id="SvgjsDefs1001"></defs><g id="SvgjsG1007" featurekey="jxYttZ-0" transform="matrix(2.3671042518218495,0,0,2.3671042518218495,-1.751657168922634,-7.953472295248825)" fill="#195C24"><path d="M0.74 20 l0 -16.46 l4.36 0 l0 1.54 l-2.84 0 l0 5.78 l2 0 l0 1.52 l-2 0 l0 6.12 l2.94 0 l0 1.5 l-4.46 0 z M6.34 20 l0 -16.46 l1.38 0 l0 16.46 l-1.38 0 z M12.14 9.96 q0 -1.1 -0.92 -1.1 q-0.86 0 -0.86 1.1 l0 2.98 l1.78 0 l0 -2.98 z M12.14 14.96 l1.3 0 l0 2.72 q0 2.5 -2.22 2.5 q-2.14 0 -2.14 -2.5 l0 -7.72 q0 -1.26 0.55 -1.9 t1.59 -0.64 q2.22 0 2.22 2.54 l0 3.98 l-3.08 0 l0 3.74 q0 1.1 0.86 1.1 q0.92 0 0.92 -1.1 l0 -2.72 z M17.86 14.94 l1.28 0 l0 2.76 q0 1.14 -0.53 1.81 t-1.67 0.67 t-1.7 -0.69 t-0.56 -1.83 l0 -7.68 q0 -1.14 0.56 -1.85 t1.7 -0.71 t1.65 0.7 t0.51 1.84 l0 2.68 l-1.24 0 l0 -2.7 q0 -1.1 -0.92 -1.1 q-0.46 0 -0.69 0.3 t-0.23 0.82 l0 7.7 q0 1.12 0.92 1.12 t0.92 -1.1 l0 -2.74 z M23.32 20.08 q-0.1 0.04 -0.29 0.07 t-0.35 0.03 q-1.1 0 -1.64 -0.68 t-0.54 -1.88 l0 -8.78 l-0.58 0 l0 -1.22 l0.58 0 l0 -3.92 l1.38 0 l0 3.92 l1.4 0 l0 1.22 l-1.4 0 l0 8.78 q0 0.76 0.27 1.07 t0.91 0.31 l0.13 0 t0.13 -0.02 l0 1.1 z M24.28 20 l0 -12.38 l1.16 0 q0.06 0.46 0.06 0.9 q0.26 -0.54 0.63 -0.78 t0.87 -0.24 q0.26 0 0.42 0.08 l0 1.54 q-0.1 -0.08 -0.28 -0.11 t-0.34 -0.03 q-0.32 0 -0.63 0.15 t-0.51 0.59 l0 10.28 l-1.38 0 z M28.46 6.04 l0 -2.5 l1.38 0 l0 2.5 l-1.38 0 z M28.46 20 l0 -12.38 l1.38 0 l0 12.38 l-1.38 0 z M34.42 14.94 l1.28 0 l0 2.76 q0 1.14 -0.53 1.81 t-1.67 0.67 t-1.7 -0.69 t-0.56 -1.83 l0 -7.68 q0 -1.14 0.56 -1.85 t1.7 -0.71 t1.65 0.7 t0.51 1.84 l0 2.68 l-1.24 0 l0 -2.7 q0 -1.1 -0.92 -1.1 q-0.46 0 -0.69 0.3 t-0.23 0.82 l0 7.7 q0 1.12 0.92 1.12 t0.92 -1.1 l0 -2.74 z M39.26 12.3 l0 -1.18 l3.16 0 l0 1.18 l-3.16 0 z M50.26 20 l-0.36 -2.76 l-2.46 0 l-0.36 2.76 l-1.48 0 l2.26 -16.46 l1.78 0 l2.14 16.46 l-1.52 0 z M49.72 15.84 q-0.26 -2.12 -0.52 -4.19 t-0.5 -4.25 q-0.26 2.18 -0.53 4.25 t-0.55 4.19 l2.1 0 z M56.14 20 q-0.02 -0.22 -0.03 -0.44 t-0.01 -0.46 q-0.28 0.5 -0.73 0.77 t-1.03 0.27 q-1.6 0 -1.6 -2.14 l0 -10.38 l1.38 0 l0 10.16 q0 0.56 0.18 0.78 t0.58 0.22 q0.32 0 0.61 -0.17 t0.45 -0.57 l0 -10.42 l1.38 0 l0 12.38 l-1.18 0 z M61.66 20.08 q-0.1 0.04 -0.29 0.07 t-0.35 0.03 q-1.1 0 -1.64 -0.68 t-0.54 -1.88 l0 -8.78 l-0.58 0 l0 -1.22 l0.58 0 l0 -3.92 l1.38 0 l0 3.92 l1.4 0 l0 1.22 l-1.4 0 l0 8.78 q0 0.76 0.27 1.07 t0.91 0.31 l0.13 0 t0.13 -0.02 l0 1.1 z M62.5 9.9 q0 -1.2 0.56 -1.84 t1.72 -0.64 q1.14 0 1.71 0.64 t0.57 1.84 l0 7.82 q0 1.2 -0.57 1.83 t-1.71 0.63 q-1.16 0 -1.72 -0.63 t-0.56 -1.83 l0 -7.82 z M65.72 9.94 q0 -0.52 -0.19 -0.81 t-0.75 -0.29 t-0.75 0.29 t-0.19 0.81 l0 7.78 q0 0.52 0.19 0.79 t0.75 0.27 t0.75 -0.28 t0.19 -0.82 l0 -7.74 z M74.4 20 l0 -10.3 q0 -0.92 -0.7 -0.92 q-0.28 0 -0.52 0.18 t-0.4 0.58 l0 10.46 l-1.38 0 l0 -10.3 q0 -0.92 -0.7 -0.92 q-0.26 0 -0.5 0.18 t-0.4 0.58 l0 10.46 l-1.38 0 l0 -12.38 l1.16 0 q0.06 0.46 0.06 0.92 q0.26 -0.52 0.68 -0.82 t0.94 -0.3 q1.06 0 1.34 1.08 q0.26 -0.5 0.69 -0.79 t0.97 -0.29 q0.78 0 1.14 0.56 t0.36 1.7 l0 10.32 l-1.36 0 z M80.26 20 q-0.08 -0.26 -0.08 -0.74 q-0.5 0.92 -1.48 0.92 q-0.84 0 -1.31 -0.46 t-0.47 -1.5 l0 -1.82 q0 -0.9 0.25 -1.51 t0.68 -1.03 t1.01 -0.71 t1.24 -0.57 l0 -2.7 q0 -0.52 -0.19 -0.8 t-0.71 -0.28 q-0.54 0 -0.72 0.28 t-0.18 0.8 l0 2.6 l-1.22 0 l0 -2.62 q0 -1.22 0.51 -1.83 t1.65 -0.61 q2.18 0 2.18 2.44 l0 8.72 q0 0.44 0.02 0.82 t0.08 0.6 l-1.26 0 z M80.1 13.68 q-0.6 0.22 -0.97 0.48 t-0.56 0.59 t-0.25 0.76 t-0.06 0.99 l0 1.32 q0 1.02 0.94 1.02 q0.3 0 0.55 -0.18 t0.35 -0.6 l0 -4.38 z M85.74 20.08 q-0.1 0.04 -0.29 0.07 t-0.35 0.03 q-1.1 0 -1.64 -0.68 t-0.54 -1.88 l0 -8.78 l-0.58 0 l0 -1.22 l0.58 0 l0 -3.92 l1.38 0 l0 3.92 l1.4 0 l0 1.22 l-1.4 0 l0 8.78 q0 0.76 0.27 1.07 t0.91 0.31 l0.13 0 t0.13 -0.02 l0 1.1 z M86.74 6.04 l0 -2.5 l1.38 0 l0 2.5 l-1.38 0 z M86.74 20 l0 -12.38 l1.38 0 l0 12.38 l-1.38 0 z M89.52 9.9 q0 -1.2 0.56 -1.84 t1.72 -0.64 q1.14 0 1.71 0.64 t0.57 1.84 l0 7.82 q0 1.2 -0.57 1.83 t-1.71 0.63 q-1.16 0 -1.72 -0.63 t-0.56 -1.83 l0 -7.82 z M92.74 9.94 q0 -0.52 -0.19 -0.81 t-0.75 -0.29 t-0.75 0.29 t-0.19 0.81 l0 7.78 q0 0.52 0.19 0.79 t0.75 0.27 t0.75 -0.28 t0.19 -0.82 l0 -7.74 z M98.68 20 l0 -10.22 q0 -0.54 -0.18 -0.77 t-0.62 -0.23 q-0.3 0 -0.6 0.18 t-0.46 0.58 l0 10.46 l-1.38 0 l0 -12.38 l1.16 0 q0.06 0.46 0.06 0.94 q0.28 -0.52 0.74 -0.83 t1.04 -0.31 q0.84 0 1.23 0.54 t0.39 1.74 l0 10.3 l-1.38 0 z M103.72 12.3 l0 -1.18 l3.16 0 l0 1.18 l-3.16 0 z M113.96 15.12 q0 -0.38 -0.02 -0.62 t-0.08 -0.42 t-0.16 -0.33 t-0.24 -0.33 q-0.3 -0.36 -0.6 -0.67 t-0.62 -0.62 t-0.65 -0.66 t-0.69 -0.79 q-0.4 -0.46 -0.47 -0.95 t-0.07 -1.19 l0 -2.46 q0 -2.72 2.56 -2.72 q1.38 0 1.94 0.67 t0.56 2.05 l0 3 l-1.42 0 l0 -2.8 q0 -0.62 -0.21 -1 t-0.83 -0.38 q-1.06 0 -1.06 1.18 l0 2.44 q0 0.52 0.07 0.76 t0.29 0.52 q0.6 0.76 1.23 1.34 t1.27 1.34 q0.22 0.26 0.36 0.52 t0.22 0.56 t0.11 0.68 t0.03 0.86 l0 2.36 q0 1.32 -0.59 2.02 t-1.97 0.7 q-1.34 0 -1.95 -0.7 t-0.61 -2.02 l0 -3.5 l1.46 0 l0 3.28 q0 0.64 0.23 1.04 t0.83 0.4 q0.58 0 0.83 -0.31 t0.25 -0.91 l0 -2.34 z M116.64 9.9 q0 -1.2 0.56 -1.84 t1.72 -0.64 q1.14 0 1.71 0.64 t0.57 1.84 l0 7.82 q0 1.2 -0.57 1.83 t-1.71 0.63 q-1.16 0 -1.72 -0.63 t-0.56 -1.83 l0 -7.82 z M119.86 9.94 q0 -0.52 -0.19 -0.81 t-0.75 -0.29 t-0.75 0.29 t-0.19 0.81 l0 7.78 q0 0.52 0.19 0.79 t0.75 0.27 t0.75 -0.28 t0.19 -0.82 l0 -7.74 z M122.56 20 l0 -16.46 l1.38 0 l0 16.46 l-1.38 0 z M128.76 20 q-0.02 -0.22 -0.03 -0.44 t-0.01 -0.46 q-0.28 0.5 -0.73 0.77 t-1.03 0.27 q-1.6 0 -1.6 -2.14 l0 -10.38 l1.38 0 l0 10.16 q0 0.56 0.18 0.78 t0.58 0.22 q0.32 0 0.61 -0.17 t0.45 -0.57 l0 -10.42 l1.38 0 l0 12.38 l-1.18 0 z M134.28 20.08 q-0.1 0.04 -0.29 0.07 t-0.35 0.03 q-1.1 0 -1.64 -0.68 t-0.54 -1.88 l0 -8.78 l-0.58 0 l0 -1.22 l0.58 0 l0 -3.92 l1.38 0 l0 3.92 l1.4 0 l0 1.22 l-1.4 0 l0 8.78 q0 0.76 0.27 1.07 t0.91 0.31 l0.13 0 t0.13 -0.02 l0 1.1 z M135.28 6.04 l0 -2.5 l1.38 0 l0 2.5 l-1.38 0 z M135.28 20 l0 -12.38 l1.38 0 l0 12.38 l-1.38 0 z M138.06 9.9 q0 -1.2 0.56 -1.84 t1.72 -0.64 q1.14 0 1.71 0.64 t0.57 1.84 l0 7.82 q0 1.2 -0.57 1.83 t-1.71 0.63 q-1.16 0 -1.72 -0.63 t-0.56 -1.83 l0 -7.82 z M141.28 9.94 q0 -0.52 -0.19 -0.81 t-0.75 -0.29 t-0.75 0.29 t-0.19 0.81 l0 7.78 q0 0.52 0.19 0.79 t0.75 0.27 t0.75 -0.28 t0.19 -0.82 l0 -7.74 z M147.22 20 l0 -10.22 q0 -0.54 -0.18 -0.77 t-0.62 -0.23 q-0.3 0 -0.6 0.18 t-0.46 0.58 l0 10.46 l-1.38 0 l0 -12.38 l1.16 0 q0.06 0.46 0.06 0.94 q0.28 -0.52 0.74 -0.83 t1.04 -0.31 q0.84 0 1.23 0.54 t0.39 1.74 l0 10.3 l-1.38 0 z" fill="#195C24"></path></g></svg>